# xmcd CD database file
#
# Track frame offsets:
#	182
#	22387
#	48860
#	77452
#	102972
#	126185
#	167452
#	191040
#
# Disc length: 2959 seconds
#
# Revision: 0
# Processed by: cddbd v1.5PL3 Copyright (c) Steve Scherf et al.
# Submitted via: CDex 1.51
#
DISCID=600b8d08
DTITLE=Don Stille - Aurora's Dance
DYEAR=2000
DGENRE=Jazz
TTITLE0=Heartland Funk
TTITLE1=Aurora's Dance
TTITLE2=Song for Molly
TTITLE3=Quarklets
TTITLE4=See See Rider
TTITLE5=Jace Marie's Dream
TTITLE6=Samba por Nada
TTITLE7=Ballad for Mahmar
EXTD=YEAR: 2000
EXTT0=
EXTT1=
EXTT2=
EXTT3=
EXTT4=
EXTT5=
EXTT6=
EXTT7=
PLAYORDER=
